<svg width="94" height="106" viewBox="0 0 94 106" fill="none" xmlns="http://www.w3.org/2000/svg">
<path d="M64.4857 103.364L64.6347 103.53H64.8578H91H92.1358L91.3688 102.692L70.036 79.3947L83.3278 65.5191L83.4667 65.374V65.1732V38.9973V37.7426L82.6038 38.6534L57.2385 65.4255L45.0368 52.1501L47.7308 50.092C47.7311 50.0917 47.7315 50.0915 47.7318 50.0912C56.8885 43.182 61.5454 35.3561 61.5454 26.613C61.5454 18.976 58.8604 12.6938 53.4861 7.8087C48.2075 2.92786 41.5003 0.5 33.4054 0.5C26.0227 0.5 19.5075 2.93628 13.8803 7.79895L13.8803 7.79894L13.8773 7.80164C8.30997 12.6928 5.53782 19.2632 5.53782 27.4574C5.53782 34.2904 8.98152 41.5344 15.7383 49.179C15.7385 49.1792 15.7387 49.1794 15.7388 49.1796L16.7437 50.3221C11.3039 54.4552 7.22556 58.5617 4.53119 62.6462L4.52982 62.6483C1.83513 66.7781 0.5 71.756 0.5 77.5575C0.5 85.0126 3.23344 91.562 8.67394 97.1853L8.67389 97.1853L8.67988 97.1913C14.2366 102.743 21.6343 105.5 30.8185 105.5C40.3423 105.5 48.7856 101.668 56.1324 94.0554L64.4857 103.364ZM28.8042 64.447L28.8135 64.4401L28.8224 64.4327L29.1341 64.175L43.4823 80.0837C39.5558 84.2034 35.5174 86.205 31.3631 86.205C28.4986 86.205 26.1355 85.2248 24.2378 83.2654C22.4165 81.2914 21.5151 79.0204 21.5151 76.4317C21.5151 72.1407 23.8855 68.1444 28.8042 64.447ZM30.5068 36.1269L30.5063 36.1263C27.2706 32.5962 25.736 29.4767 25.736 26.7537C25.736 24.0286 26.4809 22.0732 27.8876 20.7903L27.889 20.789C29.4283 19.3748 31.2583 18.6691 33.4054 18.6691C35.6307 18.6691 37.4978 19.459 39.037 21.05L39.042 21.0551L39.0471 21.0601C40.5817 22.5581 41.3472 24.3981 41.3472 26.613C41.3472 29.9746 39.6027 33.0306 35.9656 35.7821C35.9648 35.7827 35.964 35.7833 35.9632 35.7839L32.5177 38.3276L30.5068 36.1269Z" stroke="#313131"/>
</svg>
